<mxfile host="app.diagrams.net" agent="Mozilla/5.0 (Windows NT 10.0; Win64; x64) AppleWebKit/537.36 (KHTML, like Gecko) Chrome/128.0.0.0 Safari/537.36" version="24.7.8">
  <diagram id="piDafpqhtRUU5qUU-vj8" name="Page-1">
    <mxGraphModel dx="1420" dy="766" grid="1" gridSize="10" guides="1" tooltips="1" connect="1" arrows="1" fold="1" page="1" pageScale="1" pageWidth="827" pageHeight="1169" math="0" shadow="0">
      <root>
        <mxCell id="0" />
        <mxCell id="1" parent="0" />
        <mxCell id="c5Jvyzz9uoEOo67B1SIw-1" value="" style="strokeWidth=1;shadow=0;dashed=0;align=center;html=1;shape=mxgraph.mockup.containers.marginRect2;rectMarginLeft=67;strokeColor=#666666;gradientColor=none;whiteSpace=wrap;labelBorderColor=none;" vertex="1" parent="1">
          <mxGeometry x="120" y="40" width="1090" height="620" as="geometry" />
        </mxCell>
        <mxCell id="c5Jvyzz9uoEOo67B1SIw-2" value="global" style="strokeColor=#006EAF;fillColor=#008CFF;strokeWidth=1;shadow=0;dashed=0;align=center;html=1;shape=mxgraph.mockup.containers.rrect;rSize=0;fontColor=#ffffff;" vertex="1" parent="c5Jvyzz9uoEOo67B1SIw-1">
          <mxGeometry width="70" height="25" relative="1" as="geometry">
            <mxPoint x="-10" y="10" as="offset" />
          </mxGeometry>
        </mxCell>
        <mxCell id="c5Jvyzz9uoEOo67B1SIw-3" value="Preset" style="strokeWidth=1;shadow=0;dashed=0;align=center;html=1;shape=mxgraph.mockup.containers.rrect;rSize=0;strokeColor=#008cff;fillColor=none;fontColor=default;" vertex="1" parent="c5Jvyzz9uoEOo67B1SIw-1">
          <mxGeometry width="70" height="25" relative="1" as="geometry">
            <mxPoint x="-10" y="40" as="offset" />
          </mxGeometry>
        </mxCell>
        <mxCell id="c5Jvyzz9uoEOo67B1SIw-4" value="Entry" style="strokeColor=inherit;fillColor=inherit;gradientColor=inherit;strokeWidth=1;shadow=0;dashed=0;align=center;html=1;shape=mxgraph.mockup.containers.rrect;rSize=0;" vertex="1" parent="c5Jvyzz9uoEOo67B1SIw-1">
          <mxGeometry width="70" height="25" relative="1" as="geometry">
            <mxPoint x="-10" y="70" as="offset" />
          </mxGeometry>
        </mxCell>
        <mxCell id="c5Jvyzz9uoEOo67B1SIw-5" value="" style="strokeWidth=1;shadow=0;dashed=0;align=center;html=1;shape=mxgraph.mockup.containers.leftButton;rSize=5;strokeColor=#008cff;fillColor=#008cff;resizeHeight=1;movable=0;deletable=0;" vertex="1" parent="c5Jvyzz9uoEOo67B1SIw-1">
          <mxGeometry width="7" height="619.9999999999999" relative="1" as="geometry">
            <mxPoint x="60" as="offset" />
          </mxGeometry>
        </mxCell>
        <mxCell id="c5Jvyzz9uoEOo67B1SIw-21" value="Position" style="strokeColor=inherit;fillColor=inherit;gradientColor=inherit;strokeWidth=1;shadow=0;dashed=0;align=center;html=1;shape=mxgraph.mockup.containers.rrect;rSize=0;" vertex="1" parent="c5Jvyzz9uoEOo67B1SIw-1">
          <mxGeometry width="70" height="25" relative="1" as="geometry">
            <mxPoint x="-10" y="100" as="offset" />
          </mxGeometry>
        </mxCell>
        <mxCell id="c5Jvyzz9uoEOo67B1SIw-46" value="max number of open trades" style="text;strokeColor=none;align=left;fillColor=none;html=1;verticalAlign=middle;whiteSpace=wrap;rounded=0;" vertex="1" parent="c5Jvyzz9uoEOo67B1SIw-1">
          <mxGeometry x="170" y="182" width="240" height="14.35" as="geometry" />
        </mxCell>
        <mxCell id="c5Jvyzz9uoEOo67B1SIw-56" value="max Risk % per trade of account balance" style="text;strokeColor=none;align=left;fillColor=none;html=1;verticalAlign=middle;whiteSpace=wrap;rounded=0;" vertex="1" parent="c5Jvyzz9uoEOo67B1SIw-1">
          <mxGeometry x="170" y="94.35" width="240" height="25.65" as="geometry" />
        </mxCell>
        <mxCell id="c5Jvyzz9uoEOo67B1SIw-57" value="********" style="strokeWidth=1;shadow=0;dashed=0;align=center;html=1;shape=mxgraph.mockup.forms.pwField;strokeColor=#999999;mainText=;align=left;fontColor=#666666;fontSize=17;spacingLeft=3;" vertex="1" parent="c5Jvyzz9uoEOo67B1SIw-1">
          <mxGeometry x="480" y="94.35" width="150" height="25.65" as="geometry" />
        </mxCell>
        <mxCell id="c5Jvyzz9uoEOo67B1SIw-58" value="max Risk % for total from account balance" style="text;strokeColor=none;align=left;fillColor=none;html=1;verticalAlign=middle;whiteSpace=wrap;rounded=0;" vertex="1" parent="c5Jvyzz9uoEOo67B1SIw-1">
          <mxGeometry x="170" y="140" width="240" height="21.74" as="geometry" />
        </mxCell>
        <mxCell id="c5Jvyzz9uoEOo67B1SIw-62" value="max $ per trade of account balance" style="text;strokeColor=none;align=left;fillColor=none;html=1;verticalAlign=middle;whiteSpace=wrap;rounded=0;" vertex="1" parent="c5Jvyzz9uoEOo67B1SIw-1">
          <mxGeometry x="170" y="217" width="240" height="20.43" as="geometry" />
        </mxCell>
        <mxCell id="c5Jvyzz9uoEOo67B1SIw-64" value="max $ for total from account balance" style="text;strokeColor=none;align=left;fillColor=none;html=1;verticalAlign=middle;whiteSpace=wrap;rounded=0;" vertex="1" parent="c5Jvyzz9uoEOo67B1SIw-1">
          <mxGeometry x="170" y="258" width="240" height="40.43478260869565" as="geometry" />
        </mxCell>
        <mxCell id="c5Jvyzz9uoEOo67B1SIw-66" value="print a counter Winning/Losing for the day" style="strokeWidth=1;shadow=0;dashed=0;align=left;html=1;shape=mxgraph.mockup.forms.rrect;rSize=0;fillColor=#eeeeee;strokeColor=#999999;gradientColor=#cccccc;align=left;spacingLeft=4;labelPosition=right;" vertex="1" parent="c5Jvyzz9uoEOo67B1SIw-1">
          <mxGeometry x="170" y="380" width="15" height="20.217391304347824" as="geometry" />
        </mxCell>
        <mxCell id="c5Jvyzz9uoEOo67B1SIw-67" value="number of consecutive losing trade per day" style="text;strokeColor=none;align=left;fillColor=none;html=1;verticalAlign=middle;whiteSpace=wrap;rounded=0;" vertex="1" parent="c5Jvyzz9uoEOo67B1SIw-1">
          <mxGeometry x="170" y="319" width="240" height="40.43478260869565" as="geometry" />
        </mxCell>
        <mxCell id="c5Jvyzz9uoEOo67B1SIw-88" value="target profit/performance for Day/Week in % or $.&amp;nbsp;" style="text;strokeColor=none;align=left;fillColor=none;html=1;verticalAlign=middle;whiteSpace=wrap;rounded=0;" vertex="1" parent="c5Jvyzz9uoEOo67B1SIw-1">
          <mxGeometry x="170" y="420" width="290" height="20" as="geometry" />
        </mxCell>
        <mxCell id="c5Jvyzz9uoEOo67B1SIw-93" value="********" style="strokeWidth=1;shadow=0;dashed=0;align=center;html=1;shape=mxgraph.mockup.forms.pwField;strokeColor=#999999;mainText=;align=left;fontColor=#666666;fontSize=17;spacingLeft=3;" vertex="1" parent="c5Jvyzz9uoEOo67B1SIw-1">
          <mxGeometry x="480" y="138.04" width="150" height="25.65" as="geometry" />
        </mxCell>
        <mxCell id="c5Jvyzz9uoEOo67B1SIw-94" value="********" style="strokeWidth=1;shadow=0;dashed=0;align=center;html=1;shape=mxgraph.mockup.forms.pwField;strokeColor=#999999;mainText=;align=left;fontColor=#666666;fontSize=17;spacingLeft=3;" vertex="1" parent="c5Jvyzz9uoEOo67B1SIw-1">
          <mxGeometry x="480" y="176.35" width="150" height="25.65" as="geometry" />
        </mxCell>
        <mxCell id="c5Jvyzz9uoEOo67B1SIw-95" value="********" style="strokeWidth=1;shadow=0;dashed=0;align=center;html=1;shape=mxgraph.mockup.forms.pwField;strokeColor=#999999;mainText=;align=left;fontColor=#666666;fontSize=17;spacingLeft=3;" vertex="1" parent="c5Jvyzz9uoEOo67B1SIw-1">
          <mxGeometry x="480" y="214.39" width="150" height="25.65" as="geometry" />
        </mxCell>
        <mxCell id="c5Jvyzz9uoEOo67B1SIw-96" value="********" style="strokeWidth=1;shadow=0;dashed=0;align=center;html=1;shape=mxgraph.mockup.forms.pwField;strokeColor=#999999;mainText=;align=left;fontColor=#666666;fontSize=17;spacingLeft=3;" vertex="1" parent="c5Jvyzz9uoEOo67B1SIw-1">
          <mxGeometry x="480" y="258" width="150" height="25.65" as="geometry" />
        </mxCell>
        <mxCell id="c5Jvyzz9uoEOo67B1SIw-97" value="********" style="strokeWidth=1;shadow=0;dashed=0;align=center;html=1;shape=mxgraph.mockup.forms.pwField;strokeColor=#999999;mainText=;align=left;fontColor=#666666;fontSize=17;spacingLeft=3;" vertex="1" parent="c5Jvyzz9uoEOo67B1SIw-1">
          <mxGeometry x="480" y="319" width="150" height="25.65" as="geometry" />
        </mxCell>
        <mxCell id="c5Jvyzz9uoEOo67B1SIw-98" value="********" style="strokeWidth=1;shadow=0;dashed=0;align=center;html=1;shape=mxgraph.mockup.forms.pwField;strokeColor=#999999;mainText=;align=left;fontColor=#666666;fontSize=17;spacingLeft=3;" vertex="1" parent="c5Jvyzz9uoEOo67B1SIw-1">
          <mxGeometry x="480" y="370" width="150" height="25.65" as="geometry" />
        </mxCell>
        <mxCell id="c5Jvyzz9uoEOo67B1SIw-99" value="********" style="strokeWidth=1;shadow=0;dashed=0;align=center;html=1;shape=mxgraph.mockup.forms.pwField;strokeColor=#999999;mainText=;align=left;fontColor=#666666;fontSize=17;spacingLeft=3;" vertex="1" parent="c5Jvyzz9uoEOo67B1SIw-1">
          <mxGeometry x="480" y="414.35" width="150" height="25.65" as="geometry" />
        </mxCell>
        <mxCell id="c5Jvyzz9uoEOo67B1SIw-100" value="********" style="strokeWidth=1;shadow=0;dashed=0;align=center;html=1;shape=mxgraph.mockup.forms.pwField;strokeColor=#999999;mainText=;align=left;fontColor=#666666;fontSize=17;spacingLeft=3;" vertex="1" parent="c5Jvyzz9uoEOo67B1SIw-1">
          <mxGeometry x="480" y="460" width="150" height="25.65" as="geometry" />
        </mxCell>
        <mxCell id="c5Jvyzz9uoEOo67B1SIw-91" value="number of consecutive losing trade per day" style="text;strokeColor=none;align=left;fillColor=none;html=1;verticalAlign=middle;whiteSpace=wrap;rounded=0;" vertex="1" parent="1">
          <mxGeometry x="290" y="500.43" width="240" height="29.57" as="geometry" />
        </mxCell>
        <mxCell id="c5Jvyzz9uoEOo67B1SIw-101" value="" style="strokeWidth=1;shadow=0;dashed=0;align=center;html=1;shape=mxgraph.mockup.containers.marginRect2;rectMarginLeft=67;strokeColor=#666666;gradientColor=none;whiteSpace=wrap;labelBorderColor=none;" vertex="1" parent="1">
          <mxGeometry x="120" y="920" width="1090" height="620" as="geometry" />
        </mxCell>
        <mxCell id="c5Jvyzz9uoEOo67B1SIw-102" value="Dashboard" style="strokeColor=inherit;fillColor=inherit;gradientColor=inherit;strokeWidth=1;shadow=0;dashed=0;align=center;html=1;shape=mxgraph.mockup.containers.rrect;rSize=0;" vertex="1" parent="c5Jvyzz9uoEOo67B1SIw-101">
          <mxGeometry width="70" height="25" relative="1" as="geometry">
            <mxPoint x="-10" y="10" as="offset" />
          </mxGeometry>
        </mxCell>
        <mxCell id="c5Jvyzz9uoEOo67B1SIw-103" value="Preset" style="strokeWidth=1;shadow=0;dashed=0;align=center;html=1;shape=mxgraph.mockup.containers.rrect;rSize=0;strokeColor=#008cff;fillColor=#FFFFFF;fontColor=#000000;" vertex="1" parent="c5Jvyzz9uoEOo67B1SIw-101">
          <mxGeometry width="70" height="25" relative="1" as="geometry">
            <mxPoint x="-10" y="40" as="offset" />
          </mxGeometry>
        </mxCell>
        <mxCell id="c5Jvyzz9uoEOo67B1SIw-104" value="Orders" style="strokeColor=none;fillColor=#008CFF;strokeWidth=1;shadow=0;dashed=0;align=center;html=1;shape=mxgraph.mockup.containers.rrect;rSize=0;labelBackgroundColor=none;fontColor=#ffffff;" vertex="1" parent="c5Jvyzz9uoEOo67B1SIw-101">
          <mxGeometry width="70" height="25" relative="1" as="geometry">
            <mxPoint x="-10" y="70" as="offset" />
          </mxGeometry>
        </mxCell>
        <mxCell id="c5Jvyzz9uoEOo67B1SIw-105" value="" style="strokeWidth=1;shadow=0;dashed=0;align=center;html=1;shape=mxgraph.mockup.containers.leftButton;rSize=5;strokeColor=#008cff;fillColor=#008cff;resizeHeight=1;movable=0;deletable=0;" vertex="1" parent="c5Jvyzz9uoEOo67B1SIw-101">
          <mxGeometry width="7" height="619.9999999999999" relative="1" as="geometry">
            <mxPoint x="60" as="offset" />
          </mxGeometry>
        </mxCell>
        <mxCell id="c5Jvyzz9uoEOo67B1SIw-106" value="Position" style="strokeColor=inherit;fillColor=inherit;gradientColor=inherit;strokeWidth=1;shadow=0;dashed=0;align=center;html=1;shape=mxgraph.mockup.containers.rrect;rSize=0;" vertex="1" parent="c5Jvyzz9uoEOo67B1SIw-101">
          <mxGeometry width="70" height="25" relative="1" as="geometry">
            <mxPoint x="-10" y="100" as="offset" />
          </mxGeometry>
        </mxCell>
        <mxCell id="c5Jvyzz9uoEOo67B1SIw-147" value="" style="verticalLabelPosition=bottom;shadow=0;dashed=0;align=center;html=1;verticalAlign=top;strokeWidth=1;shape=mxgraph.mockup.graphics.lineChart;strokeColor=none;strokeColor2=#666666;strokeColor3=#008cff;strokeColor4=#dddddd;" vertex="1" parent="c5Jvyzz9uoEOo67B1SIw-101">
          <mxGeometry x="180" y="50" width="700" height="250" as="geometry" />
        </mxCell>
        <mxCell id="c5Jvyzz9uoEOo67B1SIw-148" value="" style="verticalLabelPosition=bottom;shadow=0;dashed=0;align=center;html=1;verticalAlign=top;strokeWidth=2;shape=mxgraph.mockup.markup.line;strokeColor=#009900;" vertex="1" parent="c5Jvyzz9uoEOo67B1SIw-101">
          <mxGeometry x="180" y="110" width="700" height="20" as="geometry" />
        </mxCell>
        <mxCell id="c5Jvyzz9uoEOo67B1SIw-149" value="" style="verticalLabelPosition=bottom;shadow=0;dashed=0;align=center;html=1;verticalAlign=top;strokeWidth=2;shape=mxgraph.mockup.markup.line;strokeColor=#CC0000;" vertex="1" parent="c5Jvyzz9uoEOo67B1SIw-101">
          <mxGeometry x="180" y="240" width="700" height="20" as="geometry" />
        </mxCell>
        <mxCell id="c5Jvyzz9uoEOo67B1SIw-151" value="TP" style="text;strokeColor=none;align=center;fillColor=none;html=1;verticalAlign=middle;whiteSpace=wrap;rounded=0;" vertex="1" parent="c5Jvyzz9uoEOo67B1SIw-101">
          <mxGeometry x="900" y="100" width="60" height="30" as="geometry" />
        </mxCell>
        <mxCell id="c5Jvyzz9uoEOo67B1SIw-152" value="SL" style="text;strokeColor=none;align=center;fillColor=none;html=1;verticalAlign=middle;whiteSpace=wrap;rounded=0;" vertex="1" parent="c5Jvyzz9uoEOo67B1SIw-101">
          <mxGeometry x="900" y="240" width="60" height="30" as="geometry" />
        </mxCell>
        <mxCell id="c5Jvyzz9uoEOo67B1SIw-174" value="Pending Orders" style="text;strokeColor=none;align=center;fillColor=none;html=1;verticalAlign=middle;whiteSpace=wrap;rounded=0;fontColor=#00A10A;fontFamily=Comic Sans MS;fontSize=22;" vertex="1" parent="c5Jvyzz9uoEOo67B1SIw-101">
          <mxGeometry x="180" y="350" width="740" height="30" as="geometry" />
        </mxCell>
        <mxCell id="c5Jvyzz9uoEOo67B1SIw-153" value="Assets" style="childLayout=tableLayout;recursiveResize=0;strokeColor=#98bf21;fillColor=#A7C942;shadow=1;" vertex="1" parent="1">
          <mxGeometry x="300" y="1310" width="750" height="150" as="geometry" />
        </mxCell>
        <mxCell id="c5Jvyzz9uoEOo67B1SIw-154" style="shape=tableRow;horizontal=0;startSize=0;swimlaneHead=0;swimlaneBody=0;top=0;left=0;bottom=0;right=0;dropTarget=0;collapsible=0;recursiveResize=0;expand=0;fontStyle=0;strokeColor=inherit;fillColor=#ffffff;" vertex="1" parent="c5Jvyzz9uoEOo67B1SIw-153">
          <mxGeometry width="750" height="31" as="geometry" />
        </mxCell>
        <mxCell id="c5Jvyzz9uoEOo67B1SIw-155" value="group" style="connectable=0;recursiveResize=0;strokeColor=inherit;fillColor=#A7C942;align=center;fontStyle=1;fontColor=#FFFFFF;html=1;" vertex="1" parent="c5Jvyzz9uoEOo67B1SIw-154">
          <mxGeometry width="249" height="31" as="geometry">
            <mxRectangle width="249" height="31" as="alternateBounds" />
          </mxGeometry>
        </mxCell>
        <mxCell id="c5Jvyzz9uoEOo67B1SIw-156" value="Title 2" style="connectable=0;recursiveResize=0;strokeColor=inherit;fillColor=#A7C942;align=center;fontStyle=1;fontColor=#FFFFFF;html=1;" vertex="1" parent="c5Jvyzz9uoEOo67B1SIw-154">
          <mxGeometry x="249" width="252" height="31" as="geometry">
            <mxRectangle width="252" height="31" as="alternateBounds" />
          </mxGeometry>
        </mxCell>
        <mxCell id="c5Jvyzz9uoEOo67B1SIw-157" value="Title 3" style="connectable=0;recursiveResize=0;strokeColor=inherit;fillColor=#A7C942;align=center;fontStyle=1;fontColor=#FFFFFF;html=1;" vertex="1" parent="c5Jvyzz9uoEOo67B1SIw-154">
          <mxGeometry x="501" width="249" height="31" as="geometry">
            <mxRectangle width="249" height="31" as="alternateBounds" />
          </mxGeometry>
        </mxCell>
        <mxCell id="c5Jvyzz9uoEOo67B1SIw-158" value="" style="shape=tableRow;horizontal=0;startSize=0;swimlaneHead=0;swimlaneBody=0;top=0;left=0;bottom=0;right=0;dropTarget=0;collapsible=0;recursiveResize=0;expand=0;fontStyle=0;strokeColor=inherit;fillColor=#ffffff;" vertex="1" parent="c5Jvyzz9uoEOo67B1SIw-153">
          <mxGeometry y="31" width="750" height="30" as="geometry" />
        </mxCell>
        <mxCell id="c5Jvyzz9uoEOo67B1SIw-159" value="Value 1" style="connectable=0;recursiveResize=0;strokeColor=inherit;fillColor=inherit;align=center;whiteSpace=wrap;html=1;" vertex="1" parent="c5Jvyzz9uoEOo67B1SIw-158">
          <mxGeometry width="249" height="30" as="geometry">
            <mxRectangle width="249" height="30" as="alternateBounds" />
          </mxGeometry>
        </mxCell>
        <mxCell id="c5Jvyzz9uoEOo67B1SIw-160" value="Value 2" style="connectable=0;recursiveResize=0;strokeColor=inherit;fillColor=inherit;align=center;whiteSpace=wrap;html=1;" vertex="1" parent="c5Jvyzz9uoEOo67B1SIw-158">
          <mxGeometry x="249" width="252" height="30" as="geometry">
            <mxRectangle width="252" height="30" as="alternateBounds" />
          </mxGeometry>
        </mxCell>
        <mxCell id="c5Jvyzz9uoEOo67B1SIw-161" value="Value 3" style="connectable=0;recursiveResize=0;strokeColor=inherit;fillColor=inherit;align=center;whiteSpace=wrap;html=1;" vertex="1" parent="c5Jvyzz9uoEOo67B1SIw-158">
          <mxGeometry x="501" width="249" height="30" as="geometry">
            <mxRectangle width="249" height="30" as="alternateBounds" />
          </mxGeometry>
        </mxCell>
        <mxCell id="c5Jvyzz9uoEOo67B1SIw-162" value="" style="shape=tableRow;horizontal=0;startSize=0;swimlaneHead=0;swimlaneBody=0;top=0;left=0;bottom=0;right=0;dropTarget=0;collapsible=0;recursiveResize=0;expand=0;fontStyle=1;strokeColor=inherit;fillColor=#EAF2D3;" vertex="1" parent="c5Jvyzz9uoEOo67B1SIw-153">
          <mxGeometry y="61" width="750" height="29" as="geometry" />
        </mxCell>
        <mxCell id="c5Jvyzz9uoEOo67B1SIw-163" value="Value 4" style="connectable=0;recursiveResize=0;strokeColor=inherit;fillColor=inherit;whiteSpace=wrap;html=1;" vertex="1" parent="c5Jvyzz9uoEOo67B1SIw-162">
          <mxGeometry width="249" height="29" as="geometry">
            <mxRectangle width="249" height="29" as="alternateBounds" />
          </mxGeometry>
        </mxCell>
        <mxCell id="c5Jvyzz9uoEOo67B1SIw-164" value="Value 5" style="connectable=0;recursiveResize=0;strokeColor=inherit;fillColor=inherit;whiteSpace=wrap;html=1;" vertex="1" parent="c5Jvyzz9uoEOo67B1SIw-162">
          <mxGeometry x="249" width="252" height="29" as="geometry">
            <mxRectangle width="252" height="29" as="alternateBounds" />
          </mxGeometry>
        </mxCell>
        <mxCell id="c5Jvyzz9uoEOo67B1SIw-165" value="Value 6" style="connectable=0;recursiveResize=0;strokeColor=inherit;fillColor=inherit;whiteSpace=wrap;html=1;" vertex="1" parent="c5Jvyzz9uoEOo67B1SIw-162">
          <mxGeometry x="501" width="249" height="29" as="geometry">
            <mxRectangle width="249" height="29" as="alternateBounds" />
          </mxGeometry>
        </mxCell>
        <mxCell id="c5Jvyzz9uoEOo67B1SIw-166" value="" style="shape=tableRow;horizontal=0;startSize=0;swimlaneHead=0;swimlaneBody=0;top=0;left=0;bottom=0;right=0;dropTarget=0;collapsible=0;recursiveResize=0;expand=0;fontStyle=0;strokeColor=inherit;fillColor=#ffffff;" vertex="1" parent="c5Jvyzz9uoEOo67B1SIw-153">
          <mxGeometry y="90" width="750" height="31" as="geometry" />
        </mxCell>
        <mxCell id="c5Jvyzz9uoEOo67B1SIw-167" value="Value 7" style="connectable=0;recursiveResize=0;strokeColor=inherit;fillColor=inherit;fontStyle=0;align=center;whiteSpace=wrap;html=1;" vertex="1" parent="c5Jvyzz9uoEOo67B1SIw-166">
          <mxGeometry width="249" height="31" as="geometry">
            <mxRectangle width="249" height="31" as="alternateBounds" />
          </mxGeometry>
        </mxCell>
        <mxCell id="c5Jvyzz9uoEOo67B1SIw-168" value="Value 8" style="connectable=0;recursiveResize=0;strokeColor=inherit;fillColor=inherit;fontStyle=0;align=center;whiteSpace=wrap;html=1;" vertex="1" parent="c5Jvyzz9uoEOo67B1SIw-166">
          <mxGeometry x="249" width="252" height="31" as="geometry">
            <mxRectangle width="252" height="31" as="alternateBounds" />
          </mxGeometry>
        </mxCell>
        <mxCell id="c5Jvyzz9uoEOo67B1SIw-169" value="Value 9" style="connectable=0;recursiveResize=0;strokeColor=inherit;fillColor=inherit;fontStyle=0;align=center;whiteSpace=wrap;html=1;" vertex="1" parent="c5Jvyzz9uoEOo67B1SIw-166">
          <mxGeometry x="501" width="249" height="31" as="geometry">
            <mxRectangle width="249" height="31" as="alternateBounds" />
          </mxGeometry>
        </mxCell>
        <mxCell id="c5Jvyzz9uoEOo67B1SIw-170" value="" style="shape=tableRow;horizontal=0;startSize=0;swimlaneHead=0;swimlaneBody=0;top=0;left=0;bottom=0;right=0;dropTarget=0;collapsible=0;recursiveResize=0;expand=0;fontStyle=1;strokeColor=inherit;fillColor=#EAF2D3;" vertex="1" parent="c5Jvyzz9uoEOo67B1SIw-153">
          <mxGeometry y="121" width="750" height="29" as="geometry" />
        </mxCell>
        <mxCell id="c5Jvyzz9uoEOo67B1SIw-171" value="Value 10" style="connectable=0;recursiveResize=0;strokeColor=inherit;fillColor=inherit;whiteSpace=wrap;html=1;" vertex="1" parent="c5Jvyzz9uoEOo67B1SIw-170">
          <mxGeometry width="249" height="29" as="geometry">
            <mxRectangle width="249" height="29" as="alternateBounds" />
          </mxGeometry>
        </mxCell>
        <mxCell id="c5Jvyzz9uoEOo67B1SIw-172" value="Value 11" style="connectable=0;recursiveResize=0;strokeColor=inherit;fillColor=inherit;whiteSpace=wrap;html=1;" vertex="1" parent="c5Jvyzz9uoEOo67B1SIw-170">
          <mxGeometry x="249" width="252" height="29" as="geometry">
            <mxRectangle width="252" height="29" as="alternateBounds" />
          </mxGeometry>
        </mxCell>
        <mxCell id="c5Jvyzz9uoEOo67B1SIw-173" value="Value 12" style="connectable=0;recursiveResize=0;strokeColor=inherit;fillColor=inherit;whiteSpace=wrap;html=1;" vertex="1" parent="c5Jvyzz9uoEOo67B1SIw-170">
          <mxGeometry x="501" width="249" height="29" as="geometry">
            <mxRectangle width="249" height="29" as="alternateBounds" />
          </mxGeometry>
        </mxCell>
        <mxCell id="c5Jvyzz9uoEOo67B1SIw-175" value="" style="strokeWidth=1;shadow=0;dashed=0;align=center;html=1;shape=mxgraph.mockup.containers.marginRect2;rectMarginLeft=67;strokeColor=#666666;gradientColor=none;whiteSpace=wrap;labelBorderColor=none;" vertex="1" parent="1">
          <mxGeometry x="110" y="1640" width="1090" height="620" as="geometry" />
        </mxCell>
        <mxCell id="c5Jvyzz9uoEOo67B1SIw-176" value="Dashboard" style="strokeColor=inherit;fillColor=inherit;gradientColor=inherit;strokeWidth=1;shadow=0;dashed=0;align=center;html=1;shape=mxgraph.mockup.containers.rrect;rSize=0;" vertex="1" parent="c5Jvyzz9uoEOo67B1SIw-175">
          <mxGeometry width="70" height="25" relative="1" as="geometry">
            <mxPoint x="-10" y="10" as="offset" />
          </mxGeometry>
        </mxCell>
        <mxCell id="c5Jvyzz9uoEOo67B1SIw-177" value="Preset" style="strokeWidth=1;shadow=0;dashed=0;align=center;html=1;shape=mxgraph.mockup.containers.rrect;rSize=0;strokeColor=#008cff;fillColor=#FFFFFF;fontColor=#000000;" vertex="1" parent="c5Jvyzz9uoEOo67B1SIw-175">
          <mxGeometry width="70" height="25" relative="1" as="geometry">
            <mxPoint x="-10" y="40" as="offset" />
          </mxGeometry>
        </mxCell>
        <mxCell id="c5Jvyzz9uoEOo67B1SIw-178" value="Entry" style="strokeColor=none;fillColor=#008CFF;strokeWidth=1;shadow=0;dashed=0;align=center;html=1;shape=mxgraph.mockup.containers.rrect;rSize=0;labelBackgroundColor=none;fontColor=#ffffff;" vertex="1" parent="c5Jvyzz9uoEOo67B1SIw-175">
          <mxGeometry width="70" height="25" relative="1" as="geometry">
            <mxPoint x="-10" y="70" as="offset" />
          </mxGeometry>
        </mxCell>
        <mxCell id="c5Jvyzz9uoEOo67B1SIw-179" value="" style="strokeWidth=1;shadow=0;dashed=0;align=center;html=1;shape=mxgraph.mockup.containers.leftButton;rSize=5;strokeColor=#008cff;fillColor=#008cff;resizeHeight=1;movable=0;deletable=0;" vertex="1" parent="c5Jvyzz9uoEOo67B1SIw-175">
          <mxGeometry width="7" height="619.9999999999999" relative="1" as="geometry">
            <mxPoint x="60" as="offset" />
          </mxGeometry>
        </mxCell>
        <mxCell id="c5Jvyzz9uoEOo67B1SIw-180" value="Position" style="strokeColor=inherit;fillColor=inherit;gradientColor=inherit;strokeWidth=1;shadow=0;dashed=0;align=center;html=1;shape=mxgraph.mockup.containers.rrect;rSize=0;" vertex="1" parent="c5Jvyzz9uoEOo67B1SIw-175">
          <mxGeometry width="70" height="25" relative="1" as="geometry">
            <mxPoint x="-10" y="100" as="offset" />
          </mxGeometry>
        </mxCell>
        <mxCell id="c5Jvyzz9uoEOo67B1SIw-181" value="" style="verticalLabelPosition=bottom;shadow=0;dashed=0;align=center;html=1;verticalAlign=top;strokeWidth=1;shape=mxgraph.mockup.graphics.lineChart;strokeColor=none;strokeColor2=#666666;strokeColor3=#008cff;strokeColor4=#dddddd;" vertex="1" parent="c5Jvyzz9uoEOo67B1SIw-175">
          <mxGeometry x="185" y="220" width="660" height="180" as="geometry" />
        </mxCell>
        <mxCell id="c5Jvyzz9uoEOo67B1SIw-187" value="Choose Instrument" style="text;strokeColor=none;align=center;fillColor=none;html=1;verticalAlign=middle;whiteSpace=wrap;rounded=0;fontColor=#00A10A;fontFamily=Comic Sans MS;fontSize=22;" vertex="1" parent="c5Jvyzz9uoEOo67B1SIw-175">
          <mxGeometry x="180" y="60" width="220" height="30" as="geometry" />
        </mxCell>
        <mxCell id="c5Jvyzz9uoEOo67B1SIw-188" value="AAPL" style="strokeWidth=1;shadow=0;dashed=0;align=center;html=1;shape=mxgraph.mockup.forms.comboBox;strokeColor=#999999;fillColor=#008CFF;align=left;fillColor2=#aaddff;mainText=;fontColor=#666666;fontSize=17;spacingLeft=3;" vertex="1" parent="c5Jvyzz9uoEOo67B1SIw-175">
          <mxGeometry x="490" y="60" width="150" height="30" as="geometry" />
        </mxCell>
        <mxCell id="c5Jvyzz9uoEOo67B1SIw-189" value="Choose from Option Chain" style="text;strokeColor=none;align=center;fillColor=none;html=1;verticalAlign=middle;whiteSpace=wrap;rounded=0;fontColor=#00A10A;fontFamily=Comic Sans MS;fontSize=22;" vertex="1" parent="c5Jvyzz9uoEOo67B1SIw-175">
          <mxGeometry x="185" y="110" width="280" height="30" as="geometry" />
        </mxCell>
        <mxCell id="c5Jvyzz9uoEOo67B1SIw-190" value="SEP 24" style="strokeWidth=1;shadow=0;dashed=0;align=center;html=1;shape=mxgraph.mockup.forms.comboBox;strokeColor=#999999;fillColor=#008CFF;align=left;fillColor2=#aaddff;mainText=;fontColor=#666666;fontSize=17;spacingLeft=3;" vertex="1" parent="c5Jvyzz9uoEOo67B1SIw-175">
          <mxGeometry x="490" y="110" width="150" height="30" as="geometry" />
        </mxCell>
        <mxCell id="c5Jvyzz9uoEOo67B1SIw-191" value="Choose Strike" style="text;strokeColor=none;align=center;fillColor=none;html=1;verticalAlign=middle;whiteSpace=wrap;rounded=0;fontColor=#00A10A;fontFamily=Comic Sans MS;fontSize=22;" vertex="1" parent="c5Jvyzz9uoEOo67B1SIw-175">
          <mxGeometry x="180" y="160" width="280" height="30" as="geometry" />
        </mxCell>
        <mxCell id="c5Jvyzz9uoEOo67B1SIw-192" value="strike" style="strokeWidth=1;shadow=0;dashed=0;align=center;html=1;shape=mxgraph.mockup.forms.comboBox;strokeColor=#999999;fillColor=#008CFF;align=left;fillColor2=#aaddff;mainText=;fontColor=#666666;fontSize=17;spacingLeft=3;" vertex="1" parent="c5Jvyzz9uoEOo67B1SIw-175">
          <mxGeometry x="490" y="160" width="150" height="30" as="geometry" />
        </mxCell>
        <mxCell id="c5Jvyzz9uoEOo67B1SIw-196" value="Option 1" style="strokeWidth=1;shadow=0;dashed=0;align=center;html=1;shape=mxgraph.mockup.forms.comboBox;strokeColor=#999999;fillColor=#ddeeff;align=left;fillColor2=#aaddff;mainText=;fontColor=#666666;fontSize=17;spacingLeft=3;" vertex="1" parent="c5Jvyzz9uoEOo67B1SIw-175">
          <mxGeometry x="450" y="490" width="150" height="30" as="geometry" />
        </mxCell>
      </root>
    </mxGraphModel>
  </diagram>
</mxfile>
